<?xml version="1.0" encoding="iso-8859-1"?>
<!-- Uploaded to: SVG Repo, www.svgrepo.com, Generator: SVG Repo Mixer Tools -->
<svg fill="#000000" height="800px" width="800px" version="1.1" id="Layer_1" xmlns="http://www.w3.org/2000/svg" xmlns:xlink="http://www.w3.org/1999/xlink" 
	 viewBox="0 0 512 512" xml:space="preserve">
<g>
	<g>
		<path d="M503.467,76.8h-25.6c-2.85,0-5.513,1.425-7.1,3.797L370.901,230.4H141.099L41.233,80.597
			c-1.587-2.372-4.25-3.797-7.1-3.797h-25.6C3.823,76.8,0,80.623,0,85.333s3.823,8.533,8.533,8.533h21.035L120.593,230.4h-86.46
			c-4.71,0-8.533,3.823-8.533,8.533v34.133c0,4.71,3.823,8.533,8.533,8.533h19.115l40.934,147.354
			c1.024,3.695,4.386,6.246,8.218,6.246h307.2c3.831,0,7.194-2.551,8.218-6.246L458.752,281.6h19.115
			c4.71,0,8.533-3.823,8.533-8.533v-34.133c0-4.71-3.823-8.533-8.533-8.533h-86.46l91.025-136.533h21.035
			c4.71,0,8.533-3.823,8.533-8.533S508.177,76.8,503.467,76.8z M70.963,281.6h75.793l7.586,34.133H80.444L70.963,281.6z
			 M94.66,366.933L85.18,332.8h72.951l7.586,34.133H94.66z M108.885,418.133L99.405,384h70.11l7.586,34.133H108.885z
			 M247.467,418.133h-52.89L186.991,384h60.476V418.133z M247.467,366.933h-64.265l-7.586-34.133h71.851V366.933z M247.467,315.733
			h-75.648l-7.586-34.133h83.234V315.733z M317.423,418.133h-52.89V384h60.476L317.423,418.133z M264.533,366.933V332.8h71.851
			l-7.586,34.133H264.533z M264.533,315.733V281.6h83.234l-7.586,34.133H264.533z M403.115,418.133h-68.207L342.494,384h70.11
			L403.115,418.133z M417.34,366.933h-71.057l7.586-34.133h72.951L417.34,366.933z M431.556,315.733h-73.899l7.586-34.133h75.802
			L431.556,315.733z M469.333,247.467v17.067H42.667v-17.067H469.333z"/>
	</g>
</g>
</svg>